<svg xmlns="http://www.w3.org/2000/svg" xmlns:xlink="http://www.w3.org/1999/xlink" viewBox="0 0 32 32"><linearGradient id="b" x1="-236" x2="-236" y1="-308.6" y2="-308.5" gradientTransform="matrix(202.94 0 0 -202.78 47910 -62541)" gradientUnits="userSpaceOnUse"><stop offset="0" stop-color="#fb7655"/><stop offset=".4" stop-color="#e42b1e"/><stop offset="1" stop-color="#900"/><stop offset="1" stop-color="#900"/></linearGradient><linearGradient id="a" x1="-235.6" x2="-235.7" y1="-309.1" y2="-309" gradientTransform="matrix(60.3 0 0 -111.78 14236 -34525)" gradientUnits="userSpaceOnUse"><stop offset="0" stop-color="#871101"/><stop offset="1" stop-color="#911209"/><stop offset="1" stop-color="#911209"/></linearGradient><linearGradient xlink:href="#a" id="c" x1="-235.9" x2="-235.9" y1="-313.4" y2="-313.1" gradientTransform="matrix(188.32 0 0 -21.99 44447 -6857)"/><linearGradient id="d" x1="-233.5" x2="-233.5" y1="-309.1" y2="-309.2" gradientTransform="matrix(65.22 0 0 -97.1 15238 -29992)" gradientUnits="userSpaceOnUse"><stop offset="0" stop-color="#fff"/><stop offset=".2" stop-color="#e57252"/><stop offset=".5" stop-color="#de3b20"/><stop offset="1" stop-color="#a60003"/><stop offset="1" stop-color="#a60003"/></linearGradient><linearGradient id="e" x1="-235.3" x2="-235.3" y1="-309.5" y2="-309.6" gradientTransform="matrix(105.32 0 0 -106.83 24799 -33053)" gradientUnits="userSpaceOnUse"><stop offset="0" stop-color="#fff"/><stop offset=".2" stop-color="#e4714e"/><stop offset=".6" stop-color="#be1a0d"/><stop offset="1" stop-color="#a80d00"/><stop offset="1" stop-color="#a80d00"/></linearGradient><linearGradient id="f" x1="-235.9" x2="-235.9" y1="-311.9" y2="-311.9" gradientTransform="matrix(94.32 0 0 -66.42 22271 -20707)" gradientUnits="userSpaceOnUse"><stop offset="0" stop-color="#fff"/><stop offset=".2" stop-color="#e46342"/><stop offset=".4" stop-color="#c82410"/><stop offset="1" stop-color="#a80d00"/><stop offset="1" stop-color="#a80d00"/></linearGradient><linearGradient id="g" x1="-235.4" x2="-235.3" y1="-321.1" y2="-321" gradientTransform="matrix(70.77 0 0 -24.3 16678 -7799)" gradientUnits="userSpaceOnUse"><stop offset="0" stop-color="#fff"/><stop offset=".5" stop-color="#c81f11"/><stop offset="1" stop-color="#bf0905"/><stop offset="1" stop-color="#bf0905"/></linearGradient><linearGradient id="h" x1="-223.8" x2="-223.8" y1="-310.1" y2="-310.2" gradientTransform="matrix(18.18 0 0 -72.64 4071 -22510)" gradientUnits="userSpaceOnUse"><stop offset="0" stop-color="#fff"/><stop offset=".3" stop-color="#de4024"/><stop offset="1" stop-color="#bf190b"/><stop offset="1" stop-color="#bf190b"/></linearGradient><linearGradient id="i" x1="-235.6" x2="-235.4" y1="-309.3" y2="-309.1" gradientTransform="matrix(158.16 0 0 -157.94 37256 -48819)" gradientUnits="userSpaceOnUse"><stop offset="0" stop-color="#bd0012"/><stop offset=".1" stop-color="#fff"/><stop offset=".2" stop-color="#fff"/><stop offset=".3" stop-color="#c82f1c"/><stop offset=".3" stop-color="#820c01"/><stop offset=".5" stop-color="#a31601"/><stop offset=".7" stop-color="#b31301"/><stop offset="1" stop-color="#e82609"/><stop offset="1" stop-color="#e82609"/></linearGradient><linearGradient id="j" x1="-235.4" x2="-235.5" y1="-309.1" y2="-309.1" gradientTransform="matrix(127.07 0 0 -97.4 29932 -30087)" gradientUnits="userSpaceOnUse"><stop offset="0" stop-color="#8c0c01"/><stop offset=".5" stop-color="#990c00"/><stop offset="1" stop-color="#a80d0e"/><stop offset="1" stop-color="#a80d0e"/></linearGradient><linearGradient id="k" x1="-235.8" x2="-235.9" y1="-309.6" y2="-309.6" gradientTransform="matrix(94.01 0 0 -105.6 22199 -32677)" gradientUnits="userSpaceOnUse"><stop offset="0" stop-color="#7e110b"/><stop offset="1" stop-color="#9e0c00"/><stop offset="1" stop-color="#9e0c00"/></linearGradient><linearGradient id="l" x1="-235.9" x2="-235.9" y1="-311.2" y2="-311.2" gradientTransform="matrix(79.7 0 0 -81.8 18827 -25448)" gradientUnits="userSpaceOnUse"><stop offset="0" stop-color="#79130d"/><stop offset="1" stop-color="#9e120b"/><stop offset="1" stop-color="#9e120b"/></linearGradient><radialGradient id="m" cx="-235.9" cy="-312.5" r=".1" gradientTransform="matrix(93.11 0 0 -48.66 21986 -15194)" gradientUnits="userSpaceOnUse"><stop offset="0" stop-color="#a80d00"/><stop offset="1" stop-color="#7e0e08"/><stop offset="1" stop-color="#7e0e08"/></radialGradient><radialGradient id="n" cx="-235.3" cy="-309.7" r=".1" gradientTransform="matrix(97.43 0 0 -75.85 22937 -23468)" gradientUnits="userSpaceOnUse"><stop offset="0" stop-color="#a30c00"/><stop offset="1" stop-color="#800e08"/><stop offset="1" stop-color="#800e08"/></radialGradient><linearGradient id="o" x1="-231.2" x2="-231.3" y1="-309.4" y2="-309.3" gradientTransform="matrix(40.14 0 0 -81.14 9287 -25079)" gradientUnits="userSpaceOnUse"><stop offset="0" stop-color="#8b2114"/><stop offset=".4" stop-color="#9e100a"/><stop offset="1" stop-color="#b3100c"/><stop offset="1" stop-color="#b3100c"/></linearGradient><linearGradient id="p" x1="-235.9" x2="-235.8" y1="-317.5" y2="-317.5" gradientTransform="matrix(78.1 0 0 -32.62 18447 -10354)" gradientUnits="userSpaceOnUse"><stop offset="0" stop-color="#b31000"/><stop offset=".4" stop-color="#910f08"/><stop offset="1" stop-color="#791c12"/><stop offset="1" stop-color="#791c12"/></linearGradient><path fill="url(#b)" d="M24 20 8 30l20-1 2-21z"/><path fill="url(#a)" d="m28 29-1-13-5 7z"/><path fill="url(#c)" d="m28 29-13-1-7 2z"/><path fill="url(#d)" d="m8 30 3-11-7 2z"/><path fill="url(#e)" d="m22 23-3-12-9 8z"/><path fill="url(#f)" d="m29 11-8-6-2 7z"/><path fill="url(#g)" d="m26 2-5 3-3-3z"/><path fill="url(#h)" d="m2 24 2-3-2-5z"/><path fill="#fff" d="m2 16 2 5 7-2 8-7 2-7-3-3-6 2-6 6-4 6z"/><path fill="url(#i)" d="M8 8c4-4 10-7 12-4s-1 7-5 11-9 6-11 4 0-7 4-11z"/><path fill="url(#j)" d="m8 30 3-11 11 4c-4 3-8 6-14 7z"/><path fill="url(#k)" d="m19 12 3 11c3-4 6-7 7-12l-10 1z"/><path fill="url(#l)" d="M29 11c1-3 2-8-4-9l-4 3 8 6z"/><path fill="#9e1209" d="M2 24c0 6 4 6 6 6l-4-9z"/><path fill="url(#m)" d="m19 12 8 4a18 18 0 0 0 2-5l-10 1z"/><path fill="url(#n)" d="m11 19 4 9a28 28 0 0 0 7-5l-11-4z"/><path fill="url(#o)" d="m4 21-1 7c1 2 3 2 5 2l-4-9z"/><path fill="url(#p)" d="m21 5 9 1-4-4-5 3z"/></svg>